<?xml version="1.0" standalone="no"?>
<!DOCTYPE svg PUBLIC "-//W3C//DTD SVG 20010904//EN"
 "http://www.w3.org/TR/2001/REC-SVG-20010904/DTD/svg10.dtd">
<svg version="1.0" xmlns="http://www.w3.org/2000/svg"
 width="900.000000pt" height="900.000000pt" viewBox="0 0 900.000000 900.000000"
 preserveAspectRatio="xMidYMid meet">

<g transform="translate(0.000000,900.000000) scale(0.100000,-0.100000)"
fill="#000000" stroke="none">
<path d="M3974 8979 c-71 -27 -127 -79 -163 -151 l-31 -61 0 -518 c0 -341 -4
-536 -11 -571 -24 -115 -122 -246 -219 -296 -54 -27 -338 -144 -405 -167 -57
-19 -184 -21 -246 -5 -107 29 -133 51 -519 436 -421 419 -419 418 -550 418
-129 1 -137 -5 -521 -391 -373 -375 -374 -376 -374 -503 0 -128 -3 -124 415
-545 232 -234 386 -396 398 -421 46 -92 63 -211 41 -303 -5 -25 -51 -142 -101
-260 -90 -211 -94 -218 -158 -281 -75 -75 -148 -114 -241 -129 -38 -7 -263
-11 -555 -11 -432 0 -496 -2 -540 -17 -68 -23 -144 -101 -172 -176 -21 -56
-22 -71 -22 -527 0 -445 1 -472 20 -523 28 -74 79 -130 152 -166 l61 -31 502
0 c297 0 524 -4 556 -10 105 -20 215 -93 278 -184 40 -57 197 -449 210 -523
13 -72 2 -161 -31 -251 -19 -53 -49 -86 -394 -432 -419 -422 -418 -420 -418
-550 -1 -129 6 -138 386 -517 376 -375 379 -377 508 -377 130 0 129 -1 540
409 400 399 404 402 548 427 54 9 88 9 134 1 85 -14 489 -184 550 -231 59 -45
120 -126 150 -200 22 -56 23 -64 28 -592 5 -533 5 -535 28 -582 31 -63 97
-121 166 -147 55 -20 71 -21 526 -21 445 0 472 1 523 20 74 28 130 79 166 152
l31 61 0 492 c0 311 4 513 11 551 22 122 122 256 230 307 30 14 105 47 168 73
l113 47 -227 227 -227 227 -62 -19 c-96 -30 -250 -65 -376 -84 -162 -25 -539
-26 -700 -1 -705 109 -1300 487 -1695 1077 -90 134 -219 391 -269 536 -45 133
-91 321 -113 464 -24 161 -24 538 1 705 36 244 107 475 215 700 270 561 718
981 1297 1219 311 127 646 185 999 172 370 -13 663 -86 990 -245 608 -298
1069 -835 1265 -1473 139 -451 145 -953 19 -1392 l-31 -109 223 -223 c123
-123 227 -224 230 -224 4 0 32 64 64 142 74 186 120 250 226 316 94 57 79 56
669 62 516 5 547 6 585 25 63 31 129 103 154 168 20 56 21 72 21 527 0 455 -1
471 -21 527 -25 65 -91 137 -154 168 -38 19 -69 20 -590 25 -595 6 -580 5
-674 62 -94 58 -159 138 -208 258 -17 41 -57 136 -88 210 -47 111 -58 148 -62
210 -6 83 11 169 48 242 14 28 156 179 399 423 404 407 394 395 415 516 8 45
-17 149 -46 193 -32 46 -627 643 -676 677 -56 39 -144 62 -208 53 -106 -14
-117 -23 -525 -428 -362 -360 -389 -385 -445 -406 -91 -33 -169 -43 -243 -30
-80 14 -458 168 -518 212 -58 41 -126 131 -156 206 -23 57 -23 61 -28 612 l-5
555 -23 47 c-30 61 -99 122 -168 148 -52 19 -76 20 -527 19 -443 0 -475 -1
-523 -20z"/>
<path d="M4383 6235 c-44 -7 -122 -22 -172 -35 l-91 -22 22 -32 c12 -17 180
-188 374 -381 291 -289 362 -365 409 -438 112 -173 162 -346 152 -522 -8 -127
-26 -195 -87 -320 -114 -235 -339 -435 -580 -516 -79 -27 -115 -33 -216 -37
-236 -9 -435 64 -639 235 -53 44 -194 188 -592 606 l-112 117 -35 -21 c-19
-11 -37 -28 -40 -37 -19 -63 -31 -224 -30 -407 0 -172 4 -231 22 -327 51 -270
161 -515 331 -735 238 -309 560 -540 911 -657 187 -62 320 -80 555 -73 203 5
319 25 505 83 65 20 146 38 186 41 124 9 146 -6 444 -301 408 -404 1760 -1713
1830 -1771 239 -199 537 -187 771 32 265 250 291 550 70 825 -62 78 -319 330
-1166 1143 -771 740 -919 887 -944 938 -31 63 -27 126 15 259 75 239 99 411
91 658 -6 195 -29 327 -88 497 -91 265 -230 485 -435 689 -274 273 -645 466
-988 513 -102 14 -370 12 -473 -4z m3585 -4774 c107 -54 167 -149 165 -260 -1
-116 -54 -200 -158 -252 -58 -28 -71 -31 -137 -27 -163 8 -270 118 -271 278
-1 132 78 237 213 281 42 14 142 3 188 -20z"/>
</g>
</svg>
